<svg width="25" height="25" viewBox="0 0 25 25" fill="none" xmlns="http://www.w3.org/2000/svg">
<g clip-path="url(#clip0_1_2095)">
<path d="M16.9989 0.786377C15.7194 0.874876 14.2239 1.69387 13.3525 2.76037C12.5575 3.72786 11.9035 5.16485 12.1585 6.56134C13.5565 6.60484 15.0009 5.76635 15.8379 4.68185C16.6209 3.67236 17.2134 2.24437 16.9989 0.786377Z" fill="white"/>
<path d="M22.0554 8.83829C20.8269 7.2978 19.1004 6.40381 17.4699 6.40381C15.3174 6.40381 14.4069 7.4343 12.9114 7.4343C11.3694 7.4343 10.198 6.40681 8.33646 6.40681C6.50797 6.40681 4.56099 7.5243 3.32649 9.43529C1.591 12.1263 1.888 17.1857 4.70048 21.4952C5.70698 23.0372 7.05097 24.7712 8.80896 24.7862C10.3735 24.8012 10.8144 23.7827 12.9339 23.7722C15.0534 23.7602 15.4554 24.7997 17.0169 24.7832C18.7764 24.7697 20.1939 22.8482 21.2004 21.3062C21.9219 20.2007 22.1904 19.6442 22.7499 18.3962C18.6804 16.8467 18.0279 11.0598 22.0554 8.83829Z" fill="white"/>
</g>
<defs>
<clipPath id="clip0_1_2095">
<rect width="24" height="24" fill="white" transform="translate(0.5 0.786377)"/>
</clipPath>
</defs>
</svg>
