<svg width="12" height="11" viewBox="0 0 12 11" fill="none" xmlns="http://www.w3.org/2000/svg">
<path d="M0 5.50021C0 5.22421 0.224 5.00021 0.5 5.00021L10.4747 5.00021L6.65525 1.36221C6.4555 1.17196 6.44725 0.855713 6.638 0.655213C6.8285 0.455213 7.14475 0.447462 7.34475 0.637963L11.707 4.79296C11.896 4.98196 12 5.23296 12 5.50021C12 5.76721 11.896 6.01846 11.6982 6.21571L7.34475 10.3622C7.14475 10.5527 6.8285 10.5447 6.638 10.345C6.44725 10.1452 6.45525 9.82871 6.65525 9.63821L10.4908 6.00021L0.5 6.00021C0.224 6.00021 0 5.77621 0 5.50021Z" fill="#07969E"/>
</svg>
