<svg width="10" height="10" viewBox="0 0 10 10" fill="none" xmlns="http://www.w3.org/2000/svg">
<path d="M1.07107 9.55636C1.26623 9.75152 1.58301 9.75152 1.77817 9.55636L8.83139 2.50314L8.70305 7.77639C8.69633 8.05216 8.91412 8.28162 9.19077 8.28851C9.4669 8.29523 9.696 8.07709 9.70272 7.80096L9.84927 1.77836C9.84927 1.51107 9.74532 1.26005 9.55635 1.07108C9.36755 0.882278 9.11635 0.778157 8.83704 0.77851L2.82664 0.924881C2.55051 0.931598 2.33254 1.16088 2.33908 1.43683C2.34545 1.71295 2.57491 1.93109 2.85103 1.92438L8.13559 1.78472L1.07107 8.84925C0.875905 9.04441 0.875905 9.3612 1.07107 9.55636Z" fill="#2D2D2D"/>
</svg>
