<svg width="60" height="18" viewBox="0 0 60 18" fill="none" xmlns="http://www.w3.org/2000/svg">
<path d="M57.4499 5.6532C58.8586 5.6532 60.0005 4.51126 60.0005 3.1026C60.0005 1.69394 58.8586 0.552002 57.4499 0.552002C56.0412 0.552002 54.8993 1.69394 54.8993 3.1026C54.8993 4.51126 56.0412 5.6532 57.4499 5.6532Z" fill="#07969E"/>
<path d="M53.9135 9.74271H40.9346C41.0315 12.9713 43.0346 14.7791 45.8744 14.7791C48.1988 14.7791 49.781 13.391 50.2007 11.5184H53.7842C53.2676 15.6185 49.5872 17.8463 45.8744 17.8463C40.6118 17.8463 37.1573 14.8115 37.1573 8.93631C37.1573 3.51141 40.5473 0.153809 45.6806 0.153809C50.7806 0.153809 53.9135 3.86661 53.9135 8.45121V9.74271ZM40.9346 7.51491H50.0393C49.8458 4.83531 48.1346 3.22101 45.5195 3.22101C43.0655 3.22101 41.1293 4.67391 40.9346 7.51491Z" fill="#07969E"/>
<path d="M19.8297 11.9057H23.7039C23.8329 13.8752 25.3497 14.9738 28.0302 14.9738C30.2256 14.9738 31.5816 14.1668 31.5816 12.8108C31.5816 11.8097 31.0005 11.261 29.2893 10.8737L25.092 9.96861C22.0572 9.35541 20.217 7.77381 20.217 5.25381C20.217 2.15421 23.0259 0.153809 27.4812 0.153809C32.3565 0.153809 35.2299 2.34921 35.2299 6.09381H31.4523C31.4523 4.18881 30.0318 3.02661 27.6105 3.02661C25.4151 3.02661 24.0912 3.83391 24.0912 5.15661C24.0912 6.06051 24.8661 6.77091 26.2545 7.09371L30.6453 8.03001C33.906 8.74041 35.4882 10.16 35.4882 12.6467C35.4882 15.9077 32.7117 17.8448 27.9978 17.8448C22.8645 17.8463 19.9587 15.7154 19.8297 11.9057Z" fill="#07969E"/>
<path d="M13.2616 0.411133H17.2003V17.3287H13.2616V0.411133Z" fill="#07969E"/>
<path d="M4.068 7.02973C4.8105 2.18683 6.5217 0.411133 11.1708 0.411133V3.73663C5.9727 4.05943 4.0356 5.70613 3.9387 10.7749V17.3287H0V0.669433H3.81L3.939 7.02943L4.068 7.02973Z" fill="#07969E"/>
</svg>
