<svg width="25" height="25" viewBox="0 0 25 25" fill="none" xmlns="http://www.w3.org/2000/svg">
<g clip-path="url(#clip0_1_2104)">
<path d="M5.16967 1.16406C4.62292 0.810767 3.9662 0.703986 3.35022 0.849392L14.1752 11.6744L17.6836 8.16597L5.16967 1.16406Z" fill="white"/>
<path d="M2.00663 1.72925C1.70471 2.13064 1.53094 2.62348 1.53094 3.14483V22.4272C1.53094 22.9486 1.70476 23.4414 2.00663 23.8428L13.0634 12.7861L2.00663 1.72925Z" fill="white"/>
<path d="M22.2622 10.7279L19.1091 8.96362L15.2867 12.786L19.1093 16.6086L22.2627 14.8442C23.0182 14.4209 23.4692 13.6516 23.4692 12.786C23.4692 11.9204 23.0182 11.1511 22.2622 10.7279Z" fill="white"/>
<path d="M14.1751 13.8979L3.35077 24.7222C3.52824 24.764 3.70885 24.7865 3.88946 24.7865C4.3358 24.7865 4.7806 24.6596 5.16961 24.4082L17.6836 17.4064L14.1751 13.8979Z" fill="white"/>
</g>
<defs>
<clipPath id="clip0_1_2104">
<rect width="24" height="24" fill="white" transform="translate(0.5 0.786377)"/>
</clipPath>
</defs>
</svg>
